<svg xmlns="http://www.w3.org/2000/svg" xmlns:xlink="http://www.w3.org/1999/xlink" width="9" height="14" xmlns:v="https://vecta.io/nano"><defs><path d="M7.5 11.727c-.386 0-.623-.155-.935-.487L1.178 5.494a.92.92 0 0 1 0-1.237c.32-.342.84-.342 1.16 0L7.5 9.763l5.162-5.506c.32-.342.84-.342 1.16 0a.92.92 0 0 1 0 1.237l-5.368 5.726c-.318.339-.568.508-.954.508z" id="A"/></defs><g transform="translate(-1283 -608)" fill="none" fill-rule="evenodd"><path fill="#none" d="M0 0h1366v829H0z"/><g transform="matrix(-1 0 0 1 1295 607)"><mask id="B" fill="#fff"><use xlink:href="#A"/></mask><g mask="url(#B)" fill="#333"><path d="M-76.875-57h169V73h-169z"/></g></g></g></svg>