<svg xmlns="http://www.w3.org/2000/svg" xmlns:xlink="http://www.w3.org/1999/xlink" width="16" height="14" xmlns:v="https://vecta.io/nano"><defs><path d="M0 3.326c0-.548.445-.993 1.001-.993h13.998c.553 0 1.001.44 1.001.993v.681c0 .548-.445.993-1.001.993H1.001C.448 5 0 4.56 0 4.007v-.681zM0 8.66c0-.548.445-.993 1.001-.993h13.998c.553 0 1.001.44 1.001.993v.681c0 .548-.445.993-1.001.993H1.001C.448 10.333 0 9.893 0 9.34V8.66zm0 5.333C0 13.445.445 13 1.001 13h13.998c.553 0 1.001.44 1.001.993v.681c0 .548-.445.993-1.001.993H1.001c-.553 0-1.001-.44-1.001-.993v-.681z" id="A"/></defs><use fill="#333" xlink:href="#A" transform="translate(0 -2)" fill-rule="evenodd"/></svg>